<svg width="683" height="637" viewBox="0 0 683 637" fill="none" xmlns="http://www.w3.org/2000/svg">
<g clip-path="url(#clip0_1257_45829)">
<path d="M322.05 5.31434L301.206 16.7059L44.3946 157.052L23.5499 168.444C13.4354 173.986 5.92888 183.321 2.67717 194.399C-0.574544 205.478 0.694114 217.397 6.20482 227.54L197.446 578.603C202.979 588.734 212.299 596.252 223.36 599.509C234.421 602.766 246.321 601.496 256.447 595.976L256.501 595.947L554.894 432.876L554.948 432.847C565.062 427.304 572.569 417.97 575.82 406.891C579.072 395.812 577.803 383.894 572.293 373.751L381.052 22.6874C375.518 12.5567 366.199 5.03806 355.138 1.78111C344.076 -1.47585 332.177 -0.205182 322.05 5.31434Z" fill="#D9DBE1"/>
<path d="M328.046 16.3211L303.357 29.8136L54.2345 165.958L29.5458 179.451C22.343 183.398 16.9974 190.045 14.6818 197.934C12.3661 205.824 13.2696 214.311 17.1939 221.534L208.435 572.598C212.375 579.812 219.012 585.166 226.889 587.485C234.766 589.805 243.24 588.9 250.451 584.969L250.505 584.94L548.898 421.869L548.952 421.84C556.155 417.893 561.5 411.246 563.816 403.356C566.131 395.467 565.228 386.979 561.304 379.756L370.062 28.693C366.122 21.4787 359.485 16.1246 351.609 13.8052C343.732 11.4858 335.258 12.3906 328.046 16.3211Z" fill="white"/>
<path d="M332.163 125.291L220.874 186.11C219.188 187.032 217.206 187.244 215.363 186.702C213.52 186.159 211.968 184.906 211.049 183.217C210.129 181.529 209.916 179.543 210.458 177.697C211 175.852 212.251 174.297 213.937 173.376L325.226 112.557C326.912 111.636 328.894 111.423 330.737 111.965C332.579 112.508 334.131 113.761 335.051 115.45C335.971 117.139 336.184 119.124 335.642 120.97C335.1 122.815 333.849 124.37 332.163 125.291Z" fill="#D9DBE1"/>
<path d="M370.091 132.45L232.58 207.599C230.894 208.521 228.911 208.733 227.069 208.191C225.226 207.648 223.674 206.395 222.754 204.706C221.834 203.018 221.622 201.032 222.164 199.186C222.705 197.341 223.957 195.786 225.643 194.865L363.154 119.716C363.989 119.259 364.905 118.972 365.851 118.871C366.796 118.769 367.752 118.855 368.665 119.124C369.577 119.393 370.428 119.839 371.168 120.437C371.908 121.035 372.524 121.773 372.979 122.609C373.435 123.445 373.721 124.363 373.823 125.31C373.924 126.257 373.838 127.215 373.57 128.128C373.302 129.042 372.856 129.894 372.259 130.636C371.663 131.377 370.926 131.994 370.091 132.45Z" fill="#D9DBE1"/>
<path d="M175.122 160.793L72.5199 216.865C71.7123 217.307 71.1128 218.052 70.8533 218.936C70.5938 219.82 70.6955 220.771 71.136 221.58L114.827 301.784C115.267 302.593 116.011 303.193 116.894 303.453C117.777 303.713 118.726 303.611 119.534 303.17L222.136 247.098C222.944 246.657 223.544 245.912 223.803 245.028C224.063 244.143 223.961 243.192 223.52 242.383L179.83 162.18C179.389 161.371 178.645 160.77 177.762 160.51C176.88 160.25 175.93 160.352 175.122 160.793Z" fill="#D9DBE1"/>
<path d="M387.382 227.056L236.432 309.549C235.597 310.006 234.681 310.293 233.735 310.394C232.79 310.496 231.833 310.41 230.921 310.141C230.009 309.872 229.158 309.426 228.418 308.829C227.678 308.231 227.062 307.493 226.607 306.656C226.151 305.82 225.865 304.902 225.763 303.955C225.662 303.008 225.748 302.051 226.016 301.137C226.284 300.223 226.729 299.371 227.326 298.629C227.923 297.888 228.66 297.272 229.495 296.815L380.445 214.322C382.131 213.401 384.113 213.188 385.955 213.73C387.798 214.273 389.35 215.526 390.27 217.215C391.19 218.904 391.402 220.889 390.861 222.735C390.319 224.58 389.068 226.135 387.382 227.056Z" fill="#D9DBE1"/>
<path d="M425.31 234.215L248.138 331.039C246.452 331.96 244.47 332.173 242.627 331.63C240.785 331.088 239.233 329.834 238.313 328.145C237.393 326.457 237.18 324.471 237.722 322.626C238.264 320.78 239.515 319.226 241.201 318.304L418.373 221.481C420.059 220.559 422.041 220.346 423.884 220.889C425.726 221.432 427.278 222.685 428.198 224.374C429.118 226.062 429.331 228.048 428.789 229.893C428.247 231.739 426.996 233.293 425.31 234.215Z" fill="#D9DBE1"/>
<path d="M178.943 377.109C195.911 377.109 209.666 363.332 209.666 346.337C209.666 329.342 195.911 315.565 178.943 315.565C161.976 315.565 148.221 329.342 148.221 346.337C148.221 363.332 161.976 377.109 178.943 377.109Z" fill="#D9DBE1"/>
<path d="M638.615 149.969H298.573C287.044 149.982 275.991 154.575 267.839 162.741C259.686 170.906 255.101 181.977 255.088 193.525V593.444C255.101 604.992 259.686 616.063 267.839 624.229C275.991 632.394 287.044 636.987 298.573 637H638.615C650.144 636.987 661.198 632.394 669.35 624.229C677.502 616.063 682.088 604.992 682.101 593.444V193.525C682.088 181.977 677.502 170.906 669.35 162.741C661.198 154.575 650.144 149.982 638.615 149.969Z" fill="#D9DBE1"/>
<path d="M638.616 162.508H298.574C290.363 162.517 282.492 165.788 276.687 171.602C270.881 177.417 267.615 185.301 267.606 193.524V593.444C267.615 601.668 270.881 609.552 276.687 615.366C282.492 621.181 290.363 624.452 298.574 624.461H638.616C646.826 624.452 654.697 621.181 660.502 615.366C666.308 609.552 669.573 601.668 669.583 593.444V193.524C669.573 185.301 666.308 177.417 660.503 171.603C654.697 165.788 646.826 162.517 638.616 162.508Z" fill="white"/>
<path d="M590.12 260.14H463.343C461.423 260.14 459.581 259.376 458.223 258.016C456.865 256.655 456.102 254.811 456.102 252.887C456.102 250.963 456.865 249.118 458.223 247.758C459.581 246.398 461.423 245.634 463.343 245.634H590.12C591.072 245.633 592.014 245.82 592.894 246.184C593.773 246.548 594.572 247.082 595.246 247.755C595.919 248.429 596.453 249.229 596.818 250.109C597.182 250.99 597.37 251.934 597.37 252.887C597.37 253.84 597.182 254.784 596.818 255.665C596.453 256.545 595.919 257.345 595.246 258.019C594.572 258.692 593.773 259.226 592.894 259.59C592.014 259.954 591.072 260.141 590.12 260.14Z" fill="#DD1010"/>
<path d="M619.991 284.62H463.343C461.423 284.62 459.581 283.855 458.223 282.495C456.865 281.135 456.102 279.29 456.102 277.366C456.102 275.443 456.865 273.598 458.223 272.238C459.581 270.877 461.423 270.113 463.343 270.113H619.991C621.912 270.113 623.754 270.877 625.112 272.238C626.47 273.598 627.233 275.443 627.233 277.366C627.233 279.29 626.47 281.135 625.112 282.495C623.754 283.855 621.912 284.62 619.991 284.62Z" fill="#DD1010"/>
<path d="M435.287 215.968H318.406C317.486 215.968 316.603 216.334 315.953 216.986C315.302 217.637 314.936 218.521 314.936 219.443V310.808C314.936 311.729 315.302 312.613 315.953 313.265C316.603 313.917 317.486 314.283 318.406 314.283H435.287C436.207 314.283 437.09 313.917 437.74 313.265C438.391 312.613 438.756 311.729 438.757 310.808V219.443C438.756 218.521 438.391 217.637 437.74 216.986C437.089 216.334 436.207 215.968 435.287 215.968Z" fill="#D9DBE1"/>
<path d="M424.797 240.895C424.797 267.371 403.369 288.832 376.937 288.832C350.506 288.832 329.077 267.371 329.077 240.895C329.077 214.419 350.506 192.957 376.937 192.957C403.369 192.957 424.797 214.419 424.797 240.895Z" stroke="#DD1010"/>
<path d="M589.929 375.963H417.972C417.021 375.963 416.079 375.776 415.201 375.411C414.322 375.047 413.524 374.512 412.851 373.839C412.179 373.165 411.646 372.366 411.282 371.486C410.918 370.606 410.73 369.662 410.73 368.71C410.73 367.757 410.918 366.814 411.282 365.934C411.646 365.054 412.179 364.255 412.851 363.581C413.524 362.908 414.322 362.373 415.201 362.009C416.079 361.644 417.021 361.457 417.972 361.457H589.929C591.848 361.459 593.688 362.224 595.044 363.584C596.401 364.944 597.162 366.788 597.162 368.71C597.162 370.632 596.401 372.476 595.044 373.836C593.688 375.196 591.848 375.961 589.929 375.963Z" fill="#D9DBE1"/>
<path d="M619.8 400.443H417.972C417.02 400.444 416.078 400.257 415.198 399.893C414.319 399.529 413.52 398.995 412.846 398.321C412.173 397.647 411.639 396.847 411.274 395.967C410.91 395.086 410.722 394.143 410.722 393.189C410.722 392.236 410.91 391.292 411.274 390.412C411.639 389.531 412.173 388.731 412.846 388.058C413.52 387.384 414.319 386.85 415.198 386.486C416.078 386.122 417.02 385.935 417.972 385.936H619.8C620.752 385.935 621.695 386.122 622.574 386.486C623.454 386.85 624.253 387.384 624.926 388.058C625.6 388.731 626.134 389.531 626.498 390.412C626.863 391.292 627.05 392.236 627.05 393.189C627.05 394.143 626.863 395.086 626.498 395.967C626.134 396.847 625.6 397.647 624.926 398.321C624.253 398.995 623.454 399.529 622.574 399.893C621.695 400.257 620.752 400.444 619.8 400.443Z" fill="#D9DBE1"/>
<path d="M589.929 463.946H417.972C416.051 463.946 414.21 463.182 412.851 461.822C411.493 460.461 410.73 458.617 410.73 456.693C410.73 454.769 411.493 452.924 412.851 451.564C414.21 450.204 416.051 449.44 417.972 449.44H589.929C591.85 449.44 593.691 450.204 595.049 451.564C596.408 452.924 597.17 454.769 597.17 456.693C597.17 458.617 596.408 460.461 595.049 461.822C593.691 463.182 591.85 463.946 589.929 463.946Z" fill="#D9DBE1"/>
<path d="M619.8 488.426H417.972C416.051 488.426 414.21 487.661 412.851 486.301C411.493 484.941 410.73 483.096 410.73 481.172C410.73 479.249 411.493 477.404 412.851 476.044C414.21 474.683 416.051 473.919 417.972 473.919H619.8C621.721 473.919 623.563 474.683 624.921 476.044C626.279 477.404 627.042 479.249 627.042 481.172C627.042 483.096 626.279 484.941 624.921 486.301C623.563 487.661 621.721 488.426 619.8 488.426Z" fill="#D9DBE1"/>
<path d="M349.915 411.449C366.882 411.449 380.637 397.672 380.637 380.677C380.637 363.682 366.882 349.906 349.915 349.906C332.947 349.906 319.192 363.682 319.192 380.677C319.192 397.672 332.947 411.449 349.915 411.449Z" fill="#D9DBE1"/>
<path d="M349.915 500.144C366.882 500.144 380.637 486.367 380.637 469.372C380.637 452.378 366.882 438.601 349.915 438.601C332.947 438.601 319.192 452.378 319.192 469.372C319.192 486.367 332.947 500.144 349.915 500.144Z" fill="#D9DBE1"/>
<path d="M589.929 552.641H417.972C416.051 552.641 414.21 551.877 412.851 550.517C411.493 549.156 410.73 547.312 410.73 545.388C410.73 543.464 411.493 541.619 412.851 540.259C414.21 538.899 416.051 538.135 417.972 538.135H589.929C591.85 538.135 593.691 538.899 595.049 540.259C596.408 541.619 597.17 543.464 597.17 545.388C597.17 547.312 596.408 549.156 595.049 550.517C593.691 551.877 591.85 552.641 589.929 552.641Z" fill="#D9DBE1"/>
<path d="M619.8 577.121H417.972C416.051 577.121 414.21 576.356 412.851 574.996C411.493 573.636 410.73 571.791 410.73 569.867C410.73 567.944 411.493 566.099 412.851 564.739C414.21 563.378 416.051 562.614 417.972 562.614H619.8C621.721 562.614 623.563 563.378 624.921 564.739C626.279 566.099 627.042 567.944 627.042 569.867C627.042 571.791 626.279 573.636 624.921 574.996C623.563 576.356 621.721 577.121 619.8 577.121Z" fill="#D9DBE1"/>
<path d="M349.915 588.839C366.882 588.839 380.637 575.062 380.637 558.067C380.637 541.072 366.882 527.295 349.915 527.295C332.947 527.295 319.192 541.072 319.192 558.067C319.192 575.062 332.947 588.839 349.915 588.839Z" fill="#D9DBE1"/>
</g>
<defs>
<clipPath id="clip0_1257_45829">
<rect width="681.202" height="637" fill="white" transform="translate(0.898926)"/>
</clipPath>
</defs>
</svg>
