<svg width="25" height="24" viewBox="0 0 25 24" fill="none" xmlns="http://www.w3.org/2000/svg">
<path d="M2 20.248H23" stroke="black" stroke-width="1.5" stroke-linecap="round" stroke-linejoin="round"/>
<path d="M13.9995 20.248V3.74805C13.9995 3.54913 13.9204 3.35837 13.7798 3.21772C13.6391 3.07706 13.4484 2.99805 13.2495 2.99805H4.24945C4.05054 2.99805 3.85977 3.07706 3.71912 3.21772C3.57847 3.35837 3.49945 3.54913 3.49945 3.74805V20.248" stroke="black" stroke-width="1.5" stroke-linecap="round" stroke-linejoin="round"/>
<path d="M21.4995 20.248V9.74805C21.4995 9.54913 21.4204 9.35837 21.2798 9.21772C21.1391 9.07706 20.9484 8.99805 20.7495 8.99805H13.9995" stroke="black" stroke-width="1.5" stroke-linecap="round" stroke-linejoin="round"/>
<path d="M6.49945 6.74805H9.49945" stroke="black" stroke-width="1.5" stroke-linecap="round" stroke-linejoin="round"/>
<path d="M7.99945 12.748H10.9995" stroke="black" stroke-width="1.5" stroke-linecap="round" stroke-linejoin="round"/>
<path d="M6.49945 16.498H9.49945" stroke="black" stroke-width="1.5" stroke-linecap="round" stroke-linejoin="round"/>
<path d="M16.9995 16.498H18.4995" stroke="black" stroke-width="1.5" stroke-linecap="round" stroke-linejoin="round"/>
<path d="M16.9995 12.748H18.4995" stroke="black" stroke-width="1.5" stroke-linecap="round" stroke-linejoin="round"/>
</svg>
