<svg width="25" height="24" viewBox="0 0 25 24" fill="none" xmlns="http://www.w3.org/2000/svg">
<path fill-rule="evenodd" clip-rule="evenodd" d="M12.0576 22.5C17.8566 22.5 22.5576 17.799 22.5576 12C22.5576 6.20101 17.8566 1.5 12.0576 1.5C6.25863 1.5 1.55762 6.20101 1.55762 12C1.55762 17.799 6.25863 22.5 12.0576 22.5ZM12.0576 24C18.685 24 24.0576 18.6274 24.0576 12C24.0576 5.37258 18.685 0 12.0576 0C5.4302 0 0.0576172 5.37258 0.0576172 12C0.0576172 18.6274 5.4302 24 12.0576 24Z" fill="#C1E5C0"/>
<path fill-rule="evenodd" clip-rule="evenodd" d="M16.5121 7.4545C16.9514 7.01517 17.6637 7.01517 18.1031 7.4545C18.537 7.88846 18.5423 8.58872 18.119 9.02921L12.1307 16.5146C12.1221 16.5254 12.1128 16.5357 12.1031 16.5455C11.6637 16.9848 10.9514 16.9848 10.5121 16.5455L6.5424 12.5758C6.10306 12.1365 6.10306 11.4242 6.5424 10.9848C6.98174 10.5455 7.69405 10.5455 8.13339 10.9848L11.2737 14.1251L16.4822 7.48816C16.4915 7.47635 16.5015 7.46511 16.5121 7.4545Z" fill="#C1E5C0"/>
</svg>
