<svg width="32" height="32" viewBox="0 0 32 32" fill="none" xmlns="http://www.w3.org/2000/svg">
<path d="M20.9337 16.9332L12.9337 24.9332C12.667 25.1998 12.4003 25.3332 12.0003 25.3332C11.6003 25.3332 11.3337 25.1998 11.067 24.9332C10.5337 24.3998 10.5337 23.5998 11.067 23.0665L18.1337 15.9998L11.067 8.93317C10.5337 8.39984 10.5337 7.59984 11.067 7.0665C11.6003 6.53317 12.4003 6.53317 12.9337 7.0665L20.9337 15.0665C21.467 15.5998 21.467 16.3998 20.9337 16.9332Z" fill="#474A57"/>
<mask id="mask0_1257_45988" style="mask-type:luminance" maskUnits="userSpaceOnUse" x="10" y="6" width="12" height="20">
<path d="M20.9337 16.9332L12.9337 24.9332C12.667 25.1998 12.4003 25.3332 12.0003 25.3332C11.6003 25.3332 11.3337 25.1998 11.067 24.9332C10.5337 24.3998 10.5337 23.5998 11.067 23.0665L18.1337 15.9998L11.067 8.93317C10.5337 8.39984 10.5337 7.59984 11.067 7.0665C11.6003 6.53317 12.4003 6.53317 12.9337 7.0665L20.9337 15.0665C21.467 15.5998 21.467 16.3998 20.9337 16.9332Z" fill="white"/>
</mask>
<g mask="url(#mask0_1257_45988)">
<rect width="32" height="32" fill="#474A57"/>
</g>
</svg>
