<svg width="29" height="28" viewBox="0 0 29 28" fill="none" xmlns="http://www.w3.org/2000/svg">
<path d="M28.5 14C28.5 6.26719 22.2328 0 14.5 0C6.76719 0 0.5 6.26719 0.5 14C0.5 20.9891 5.61875 26.7805 12.3125 27.8305V18.0469H8.75781V14H12.3125V10.9156C12.3125 7.40742 14.4016 5.46875 17.6008 5.46875C19.132 5.46875 20.7344 5.74219 20.7344 5.74219V9.1875H18.968C17.2289 9.1875 16.6875 10.2676 16.6875 11.375V14H20.5703L19.9496 18.0469H16.6875V27.8305C23.3813 26.7805 28.5 20.9891 28.5 14Z" fill="#1877F2"/>
<path d="M19.9496 18.0469L20.5703 14H16.6875V11.375C16.6875 10.2676 17.2289 9.1875 18.968 9.1875H20.7344V5.74219C20.7344 5.74219 19.132 5.46875 17.6008 5.46875C14.4016 5.46875 12.3125 7.40742 12.3125 10.9156V14H8.75781V18.0469H12.3125V27.8305C13.0262 27.9426 13.7562 28 14.5 28C15.2438 28 15.9738 27.9426 16.6875 27.8305V18.0469H19.9496Z" fill="white"/>
</svg>
