<svg width="29" height="24" viewBox="0 0 29 24" fill="none" xmlns="http://www.w3.org/2000/svg">
<path fill-rule="evenodd" clip-rule="evenodd" d="M14.0576 24C21.7896 24 28.0576 18.6274 28.0576 12C28.0576 5.37258 21.7896 0 14.0576 0C6.32563 0 0.0576172 5.37258 0.0576172 12C0.0576172 18.6274 6.32563 24 14.0576 24ZM15.6863 9.88184L11.6771 10.3125L11.5335 10.8838L12.3231 11.0068C12.8358 11.1123 12.9383 11.2705 12.8255 11.71L11.5335 16.9131C11.1951 18.2578 11.7181 18.8906 12.9486 18.8906C13.9022 18.8906 15.0096 18.5127 15.512 17.9941L15.6658 17.3701C15.3172 17.6338 14.8045 17.7393 14.4661 17.7393C13.9842 17.7393 13.8099 17.4492 13.9329 16.9395L15.6863 9.88184ZM14.0576 8.25C15.0241 8.25 15.8076 7.57843 15.8076 6.75C15.8076 5.92157 15.0241 5.25 14.0576 5.25C13.0911 5.25 12.3076 5.92157 12.3076 6.75C12.3076 7.57843 13.0911 8.25 14.0576 8.25Z" fill="#DD1010"/>
</svg>
