<svg width="25" height="24" viewBox="0 0 25 24" fill="none" xmlns="http://www.w3.org/2000/svg">
<path fill-rule="evenodd" clip-rule="evenodd" d="M20.0576 3H4.05762C2.35762 3 1.05762 4.3 1.05762 6V18C1.05762 19.7 2.35762 21 4.05762 21H20.0576C21.7576 21 23.0576 19.7 23.0576 18V6C23.0576 4.3 21.7576 3 20.0576 3ZM4.05762 5H20.0576C20.4576 5 20.7576 5.2 20.9576 5.6L12.0576 11.8L3.15762 5.6C3.35762 5.2 3.65762 5 4.05762 5ZM3.05762 18C3.05762 18.6 3.45762 19 4.05762 19H20.0576C20.6576 19 21.0576 18.6 21.0576 18V7.9L12.6576 13.8C12.4576 13.9 12.2576 14 12.0576 14C11.8576 14 11.6576 13.9 11.4576 13.8L3.05762 7.9V18Z" fill="black"/>
<mask id="mask0_1257_45929" style="mask-type:luminance" maskUnits="userSpaceOnUse" x="1" y="3" width="23" height="18">
<path fill-rule="evenodd" clip-rule="evenodd" d="M20.0576 3H4.05762C2.35762 3 1.05762 4.3 1.05762 6V18C1.05762 19.7 2.35762 21 4.05762 21H20.0576C21.7576 21 23.0576 19.7 23.0576 18V6C23.0576 4.3 21.7576 3 20.0576 3ZM4.05762 5H20.0576C20.4576 5 20.7576 5.2 20.9576 5.6L12.0576 11.8L3.15762 5.6C3.35762 5.2 3.65762 5 4.05762 5ZM3.05762 18C3.05762 18.6 3.45762 19 4.05762 19H20.0576C20.6576 19 21.0576 18.6 21.0576 18V7.9L12.6576 13.8C12.4576 13.9 12.2576 14 12.0576 14C11.8576 14 11.6576 13.9 11.4576 13.8L3.05762 7.9V18Z" fill="white"/>
</mask>
<g mask="url(#mask0_1257_45929)">
<rect x="0.0576172" width="24" height="24" fill="black"/>
</g>
</svg>
