<svg width="25" height="24" viewBox="0 0 25 24" fill="none" xmlns="http://www.w3.org/2000/svg">
<path d="M5.97363 21.75H19.4736" stroke="#474A57" stroke-width="2" stroke-linecap="round" stroke-linejoin="round"/>
<path d="M12.7236 12.75C14.3805 12.75 15.7236 11.4069 15.7236 9.75C15.7236 8.09315 14.3805 6.75 12.7236 6.75C11.0668 6.75 9.72363 8.09315 9.72363 9.75C9.72363 11.4069 11.0668 12.75 12.7236 12.75Z" stroke="#474A57" stroke-width="2" stroke-linecap="round" stroke-linejoin="round"/>
<path d="M20.2236 9.75C20.2236 16.5 12.7236 21.75 12.7236 21.75C12.7236 21.75 5.22363 16.5 5.22363 9.75C5.22363 7.76088 6.01381 5.85322 7.42033 4.4467C8.82685 3.04018 10.7345 2.25 12.7236 2.25C14.7128 2.25 16.6204 3.04018 18.0269 4.4467C19.4335 5.85322 20.2236 7.76088 20.2236 9.75V9.75Z" stroke="#474A57" stroke-width="2" stroke-linecap="round" stroke-linejoin="round"/>
</svg>
