<svg width="32" height="32" viewBox="0 0 32 32" fill="none" xmlns="http://www.w3.org/2000/svg">
<path fill-rule="evenodd" clip-rule="evenodd" d="M27 2C25.3431 2 24 3.34315 24 5C24 6.65685 25.3431 8 27 8C28.6569 8 30 6.65685 30 5C30 3.34315 28.6569 2 27 2ZM22 5C22 2.23858 24.2386 0 27 0C29.7614 0 32 2.23858 32 5C32 7.76142 29.7614 10 27 10C25.4821 10 24.1222 9.32363 23.2052 8.25585L9.76997 14.4964C9.91942 14.971 10 15.4761 10 16C10 16.5239 9.91942 17.029 9.76997 17.5036L23.2052 23.7441C24.1222 22.6764 25.4821 22 27 22C29.7614 22 32 24.2386 32 27C32 29.7614 29.7614 32 27 32C24.2386 32 22 29.7614 22 27C22 26.4761 22.0806 25.971 22.23 25.4964L8.79478 19.2558C7.87779 20.3236 6.51788 21 5 21C2.23858 21 0 18.7614 0 16C0 13.2386 2.23858 11 5 11C6.51788 11 7.87779 11.6764 8.79478 12.7442L22.23 6.50359C22.0806 6.02903 22 5.52393 22 5ZM5 13C3.34315 13 2 14.3431 2 16C2 17.6569 3.34315 19 5 19C6.65685 19 8 17.6569 8 16C8 14.3431 6.65685 13 5 13ZM27 24C25.3431 24 24 25.3431 24 27C24 28.6569 25.3431 30 27 30C28.6569 30 30 28.6569 30 27C30 25.3431 28.6569 24 27 24Z" fill="#18191F"/>
</svg>
